PathFileType	4	(X/Y/Z)	./resultDataOpenSim/trcMotMarkerGrf/sub10/qtm-14-04.trc
DataRate	CameraRate	NumFrames	NumMarkers	Units	OrigDataRate	OrigDataStartFrame	OrigNumFrames
250.000000	250.000000	13	24	m	250.000000	368	490
Frame#	Time	L.Toe.Tip			R.Toe.Tip			L.Ankle.Lat			R.Ankle.Lat			L.Ankle.Med			R.Ankle.Med			L.Heel			R.Heel			L.Knee.Lat			R.Knee.Lat			L.Knee.Med			R.Knee.Med			L.Thigh.Upper			R.Thigh.Upper			L.ASIS			R.ASIS			V.Sacral			L.Acromium			R.Acromium			C7			L.Elbow			R.Elbow			L.Wrist.Lat			R.Wrist.Lat
		X1	Y1	Z1	X2	Y2	Z2	X3	Y3	Z3	X4	Y4	Z4	X5	Y5	Z5	X6	Y6	Z6	X7	Y7	Z7	X8	Y8	Z8	X9	Y9	Z9	X10	Y10	Z10	X11	Y11	Z11	X12	Y12	Z12	X13	Y13	Z13	X14	Y14	Z14	X15	Y15	Z15	X16	Y16	Z16	X17	Y17	Z17	X18	Y18	Z18	X19	Y19	Z19	X20	Y20	Z20	X21	Y21	Z21	X22	Y22	Z22	X23	Y23	Z23	X24	Y24	Z24

368	1.468	0.89032834	0.075302009	-0.23550807	0.93181776	0.038394378	-0.033484244	0.8149219	0.19153489	-0.25931222	0.78884725	0.068530445	-0.0043186536	0.84161336	0.1971527	-0.17797702	0.8192823	0.094985099	-0.084669574	0.74936519	0.20585915	-0.21094924	0.73968148	0.050987819	-0.054952226	1.0443936	0.49281302	-0.25529517	0.89681583	0.45136854	0.047491308	1.0620995	0.46361111	-0.13774291	0.91910982	0.46028609	-0.078455736	0.90230637	0.84641892	-0.27233719	0.87833429	0.8678348	0.11060108	0.95518148	0.95540959	-0.20192703	0.95674925	0.9605119	0.039661455	0.75826321	0.97781919	-0.085499539	0.92545702	1.4475727	-0.21423473	0.87333278	1.4325427	0.087320257	0.83374691	1.4662598	-0.078073142	0.8348667	1.1654778	-0.408143	0.75823277	1.1171961	0.20706525	1.0579989	1.0955659	-0.5113702	0.86512939	1.0833199	0.43426076
369	1.472	0.90847285	0.073068459	-0.2369946	0.93187094	0.038368592	-0.03352381	0.8294605	0.1869549	-0.25976516	0.78894826	0.069038452	-0.0045327957	0.85616701	0.19294835	-0.17843586	0.81938649	0.095476314	-0.084705414	0.76356821	0.19913419	-0.21102172	0.73990085	0.05170936	-0.055055319	1.0515281	0.49435832	-0.25505136	0.89731818	0.45194541	0.047426384	1.069755	0.46543819	-0.13740695	0.91974498	0.46078903	-0.078542373	0.90825622	0.84773357	-0.27255168	0.88116635	0.86836772	0.11025136	0.96041183	0.95669742	-0.20171003	0.96048973	0.9613497	0.040092361	0.7627942	0.97847607	-0.086459979	0.93005582	1.4481894	-0.21446933	0.87820203	1.4328766	0.087583973	0.83831962	1.4669892	-0.078081693	0.83711043	1.1651109	-0.40613299	0.76412057	1.116468	0.20619907	1.0590612	1.0926353	-0.50997989	0.87462807	1.0806097	0.43135358
370	1.476	0.92677227	0.070998327	-0.23846624	0.93192012	0.038361891	-0.033555095	0.84416078	0.18235775	-0.26019108	0.78905727	0.069538426	-0.0047181438	0.87110967	0.18871514	-0.17893144	0.8195322	0.095973621	-0.084729107	0.77793822	0.19239999	-0.21109382	0.74019149	0.052433103	-0.055025744	1.058497	0.49577607	-0.25485434	0.89782928	0.45251711	0.047348716	1.0774171	0.46709286	-0.13712003	0.9205372	0.46122989	-0.078602451	0.91422857	0.84900591	-0.27275488	0.88401813	0.86888969	0.10988879	0.96566309	0.95791859	-0.20149614	0.96422374	0.96214593	0.04050899	0.76728977	0.97909667	-0.087401935	0.93465842	1.4487404	-0.21471453	0.88306424	1.4331718	0.087833451	0.84289553	1.4676537	-0.078102375	0.83938551	1.1647269	-0.40404841	0.77010734	1.115729	0.20534325	1.0601255	1.0897822	-0.50859201	0.88410073	1.0779599	0.42841529
371	1.48	0.94519043	0.069081556	-0.23991551	0.93196096	0.038364119	-0.033579952	0.85901931	0.17776389	-0.26059225	0.78917378	0.070027502	-0.0048751989	0.88648868	0.18447927	-0.17947907	0.81980652	0.096469934	-0.084755247	0.79250432	0.18565631	-0.21117306	0.74046889	0.053068955	-0.055031278	1.0653562	0.49714395	-0.25466222	0.89833572	0.45308509	0.047269766	1.0846703	0.46857288	-0.13691785	0.92158435	0.46154123	-0.078602664	0.92022525	0.85023436	-0.27295197	0.88689934	0.86941136	0.10951588	0.97093853	0.95906408	-0.20125839	0.96795006	0.96290048	0.040908474	0.77177423	0.97966286	-0.08833748	0.93925579	1.4492256	-0.21497613	0.88789809	1.4334243	0.0880523	0.84749617	1.468242	-0.078144604	0.84169362	1.1643366	-0.40188101	0.77618054	1.1149887	0.20450009	1.0611753	1.0869566	-0.5072147	0.89354496	1.075366	0.42544454
372	1.484	0.96366511	0.067292201	-0.24131748	0.93197705	0.038362765	-0.033596749	0.8740259	0.17318429	-0.2609678	0.78929424	0.070509273	-0.0050066473	0.90229646	0.18027192	-0.18006803	0.82018565	0.096955147	-0.084778685	0.80732215	0.17889458	-0.21126299	0.74064938	0.053570875	-0.055209868	1.0721029	0.49848161	-0.25445184	0.89883581	0.45364578	0.04719593	1.0915262	0.46988601	-0.13678368	0.92278684	0.46173983	-0.078566354	0.92624279	0.8514145	-0.27315477	0.88981681	0.86994626	0.10913411	0.97622387	0.96013303	-0.20098275	0.9716679	0.9636142	0.041293451	0.77624548	0.98016749	-0.089280796	0.94383966	1.4496438	-0.21525549	0.89269757	1.4336285	0.088236544	0.8521632	1.4687482	-0.07822245	0.84401361	1.1639477	-0.39970178	0.78227935	1.1142423	0.20368927	1.0622237	1.0841171	-0.50584978	0.9029572	1.072829	0.42244106
373	1.488	0.98216558	0.065622003	-0.24265453	0.93195033	0.038356034	-0.03360073	0.88917309	0.16861717	-0.26131873	0.78941146	0.070988625	-0.0051145472	0.91829396	0.1761228	-0.18063104	0.82052855	0.097427186	-0.084821981	0.82243764	0.17211666	-0.21130671	0.74073805	0.054004907	-0.055503105	1.0786724	0.49975629	-0.25422608	0.89932844	0.45419715	0.047128771	1.0981494	0.47103942	-0.13668803	0.92397499	0.46190035	-0.078541069	0.93227591	0.85254071	-0.27337092	0.89277981	0.87050466	0.10875026	0.98151024	0.96112922	-0.20067603	0.97537795	0.9642914	0.041665761	0.78069716	0.98059268	-0.090251322	0.94840737	1.4499944	-0.21554837	0.8974759	1.4337835	0.088395157	0.85691358	1.4691708	-0.078341521	0.84632091	1.1635683	-0.39761623	0.78832863	1.1134788	0.20293453	1.0632861	1.0812454	-0.50448709	0.91233262	1.0703523	0.41940835
374	1.492	1.0006942	0.064084022	-0.24392788	0.93188909	0.038360772	-0.03358779	0.9044559	0.16405734	-0.26165229	0.78952457	0.071461013	-0.0052008916	0.93409537	0.17203658	-0.18110359	0.82069787	0.097891264	-0.084945213	0.83787359	0.16533611	-0.21121444	0.74081661	0.054474258	-0.055739328	1.0850083	0.50093179	-0.25399526	0.8998042	0.45473832	0.047071393	1.1047319	0.47202268	-0.13660601	0.9250736	0.46207329	-0.078547907	0.93832449	0.85360668	-0.27359166	0.89579909	0.87108523	0.1083726	0.98680284	0.96205498	-0.20035192	0.97908197	0.96493587	0.04202459	0.78512816	0.98089371	-0.091266372	0.9529616	1.4502809	-0.21584975	0.90225058	1.4338972	0.088538426	0.86169668	1.4695336	-0.078474955	0.84861358	1.1632042	-0.39567067	0.79427789	1.1126973	0.20225379	1.0643594	1.078347	-0.50311175	0.92166829	1.0679374	0.41635138
375	1.496	1.0192552	0.062698426	-0.24513954	0.93185036	0.038405632	-0.033560618	0.9198676	0.15951905	-0.26197581	0.78964057	0.071918603	-0.0052682431	0.94944768	0.16797844	-0.18150543	0.82070755	0.098336443	-0.085152133	0.85363888	0.15857674	-0.21099232	0.74094223	0.055018921	-0.055832492	1.0911497	0.50198268	-0.25376927	0.90025721	0.45526696	0.047027121	1.1114934	0.47280719	-0.13652129	0.92610378	0.46225613	-0.078572522	0.94438968	0.85460686	-0.27379759	0.89888183	0.87167164	0.10800117	0.99210447	0.96291042	-0.20002133	0.98278341	0.9655461	0.042367753	0.7895394	0.98102534	-0.092341057	0.95750937	1.4505079	-0.21615343	0.90702432	1.4339805	0.088670224	0.86643118	1.4698796	-0.078580993	0.85091214	1.1628555	-0.39384277	0.8001292	1.1119084	0.20164903	1.0654371	1.0754435	-0.50172047	0.93096611	1.0655833	0.41327136
376	1.5	1.0378375	0.06148218	-0.24627959	0.93190002	0.038498878	-0.033528704	0.93539846	0.15503724	-0.26228676	0.78976194	0.072363288	-0.0053209895	0.96436263	0.1639295	-0.18190447	0.82070477	0.098741045	-0.08535165	0.86972866	0.15187616	-0.21075727	0.74109809	0.055605628	-0.05583519	1.0972666	0.50289224	-0.25355799	0.90070145	0.45578185	0.04698844	1.118532	0.47337941	-0.13643729	0.9271154	0.46242355	-0.078582792	0.95046996	0.85554066	-0.2739772	0.90202969	0.87224223	0.10762688	0.99741032	0.96369716	-0.19968985	0.98649583	0.96611256	0.04268886	0.7939323	0.98100535	-0.093477801	0.96205774	1.4506767	-0.21645215	0.91178207	1.4340387	0.088791448	0.87108379	1.4702289	-0.078651537	0.85323836	1.1625194	-0.39209618	0.8059197	1.1111197	0.20110244	1.0665209	1.0725544	-0.50032129	0.94023337	1.0632901	0.41016662
377	1.504	1.0564217	0.060447543	-0.24733289	0.93203146	0.038608478	-0.033502096	0.95103856	0.15064285	-0.26257633	0.7898814	0.072802895	-0.0053650755	0.97918055	0.1599708	-0.18231082	0.82079171	0.099104447	-0.085470094	0.88608923	0.14528233	-0.21061539	0.74124327	0.056184237	-0.05583261	1.1035286	0.5036493	-0.2533686	0.90116177	0.45628116	0.046938536	1.125608	0.47377491	-0.13638341	0.92814444	0.46255838	-0.078551062	0.95656289	0.85641274	-0.27413419	0.90524184	0.87278665	0.10724185	1.0027183	0.96441892	-0.19935876	0.99025767	0.96661385	0.042974965	0.79831697	0.98092177	-0.094654282	0.96660795	1.4507858	-0.21674256	0.91650852	1.4340728	0.088903725	0.87568029	1.4705636	-0.078711258	0.85559782	1.1621936	-0.39041092	0.81168195	1.1103256	0.20059367	1.0676146	1.0696833	-0.49892122	0.94947541	1.0610595	0.40703687
378	1.508	1.0749939	0.059603738	-0.24828599	0.93215848	0.038688011	-0.033491156	0.96678313	0.14635805	-0.26284101	0.78999507	0.073237801	-0.0054037176	0.99448212	0.15626003	-0.18265145	0.82094768	0.099449981	-0.08552043	0.90256903	0.13885187	-0.21061788	0.74135675	0.056735003	-0.055861866	1.1098625	0.50424198	-0.25320512	0.90165082	0.45676041	0.046869694	1.1323219	0.47405622	-0.13639025	0.92920176	0.46265889	-0.078471187	0.96266349	0.85722399	-0.274278	0.90851864	0.8733096	0.10684681	1.0080314	0.96507676	-0.19903235	0.99412232	0.96703095	0.043209679	0.80272176	0.98085806	-0.095835171	0.9711578	1.4508377	-0.21702424	0.92121672	1.4340811	0.089004238	0.88025657	1.4708552	-0.078780593	0.85798135	1.1618767	-0.38878012	0.81743235	1.1095164	0.20011513	1.0687216	1.0668243	-0.4975215	0.95868312	1.0588907	0.40388304
379	1.512	1.0935459	0.058954576	-0.24912729	0.93221401	0.038718468	-0.033499457	0.98262958	0.14220889	-0.26308408	0.79010998	0.073661221	-0.0054351353	1.0106157	0.15289405	-0.18286642	0.82111065	0.099803825	-0.085542951	0.91898857	0.13263857	-0.21077239	0.74142622	0.057267548	-0.055935596	1.1159886	0.50466066	-0.25306854	0.90216664	0.45721806	0.046790769	1.138543	0.47425581	-0.13645726	0.93027223	0.46273542	-0.078362602	0.96876327	0.85796616	-0.27440905	0.91186101	0.87381282	0.106449	1.0133497	0.96566672	-0.1987182	0.99811429	0.96737409	0.043378028	0.80720033	0.98084485	-0.096963275	0.97570379	1.4508374	-0.21729709	0.92597645	1.4340443	0.089067827	0.88482537	1.4710839	-0.078867374	0.86038088	1.1615675	-0.38720006	0.82317654	1.1086911	0.1996685	1.0698468	1.0639725	-0.49611695	0.96783729	1.0567803	0.40070389
380	1.516	1.1120657	0.058497843	-0.24984407	0.93222703	0.038719736	-0.033508884	0.99857205	0.13821903	-0.2633082	0.79023151	0.074070966	-0.0054564174	1.0273088	0.1498235	-0.18299744	0.82127048	0.10016602	-0.08554125	0.93531176	0.12665862	-0.21101232	0.74144553	0.057792615	-0.056064736	1.1217441	0.50490567	-0.25295367	0.90270247	0.45765776	0.046715819	1.1444395	0.47436582	-0.13655995	0.9313035	0.46280899	-0.078270061	0.97485523	0.85862951	-0.27451666	0.91527057	0.87428304	0.10605721	1.0186689	0.96618544	-0.19841721	1.0022016	0.96767439	0.043474405	0.81182888	0.9808741	-0.09792397	0.98023954	1.4507869	-0.21756442	0.93092665	1.4339114	0.08903495	0.8893813	1.4712368	-0.078973658	0.86280075	1.1612626	-0.3856701	0.82891287	1.107853	0.19925599	1.0709965	1.0611246	-0.49469754	0.9769299	1.0547268	0.3974966
